<?xml version="1.0" encoding="iso-8859-1"?>
<!-- Generator: Adobe Illustrator 19.0.0, SVG Export Plug-In . SVG Version: 6.00 Build 0)  -->
<svg version="1.1" id="Layer_1" xmlns="http://www.w3.org/2000/svg" xmlns:xlink="http://www.w3.org/1999/xlink" x="0px" y="0px"
	 viewBox="0 0 512.004 512.004" style="enable-background:new 0 0 512.004 512.004;" xml:space="preserve">
<path style="fill:#6DD0E3;" d="M160.628,224.862c0,4.706-0.021,9.372-0.073,13.994c-1.055,103.809-14.19,185.788-50.897,185.788
	s-49.842-81.98-50.897-185.788c-0.052-4.624-0.073-9.288-0.073-13.994c0-20.898,1.181-41.053,3.229-59.995
	C70.641,83.84,95.071,25.08,109.658,25.08s39.017,58.76,47.741,139.787C159.447,183.809,160.628,203.964,160.628,224.862z"/>
<path style="fill:#34A4BA;" d="M79.659,238.856c-0.052-4.624-0.073-9.288-0.073-13.995c0-20.898,1.181-41.053,3.229-59.995
	c6.861-63.716,23.432-113.655,37.292-132.089c-3.766-5.008-7.332-7.699-10.449-7.699c-14.587,0-39.016,58.76-47.741,139.787
	c-2.048,18.942-3.229,39.097-3.229,59.995c0,4.706,0.021,9.372,0.073,13.995c1.055,103.809,14.19,185.788,50.897,185.788
	c3.723,0,7.199-0.857,10.449-2.482C91.314,407.777,80.608,332.137,79.659,238.856z"/>
<path style="fill:#F7E9E1;" d="M504.164,424.402c-24.815,0-24.815-21.152-49.632-21.152c-24.816,0-24.816,21.152-49.632,21.152
	s-24.815-21.152-49.631-21.152c-24.816,0-24.816,21.152-49.633,21.152c-24.815,0-24.815-21.152-49.63-21.152
	c-24.815,0-24.815,21.152-49.631,21.152c-24.816,0-24.816-21.152-49.633-21.152c-24.815,0-24.815,21.152-49.632,21.152
	c-24.819,0-24.819-21.152-49.638-21.152s-24.818,21.152-49.638,21.152v5.811c0,31.321,25.087,56.712,56.033,56.712h384.261
	c30.946,0,56.033-25.391,56.033-56.712V424.402z"/>
<g>
	<path style="fill:#DED2CA;" d="M326.536,424.402c20.732,0,24.153-14.754,39.184-19.614c-2.961-0.957-6.365-1.538-10.449-1.538
		c-20.732,0-24.153,14.753-39.184,19.613C319.049,423.82,322.451,424.402,326.536,424.402z"/>
	<path style="fill:#DED2CA;" d="M425.799,424.402c20.732,0,24.153-14.754,39.184-19.614c-2.961-0.957-6.364-1.538-10.449-1.538
		c-20.732,0-24.153,14.753-39.183,19.613C418.311,423.82,421.715,424.402,425.799,424.402z"/>
	<path style="fill:#DED2CA;" d="M28.736,430.213L28.736,430.213c0-3.103,2.285-5.735,5.358-6.173
		c16.113-2.296,20.196-14.844,33.831-19.25c-2.961-0.958-6.364-1.538-10.449-1.538c-24.819,0-24.819,21.152-49.638,21.152v5.811
		c0,31.32,25.087,56.711,56.033,56.711h20.898C53.823,486.925,28.736,461.534,28.736,430.213z"/>
	<path style="fill:#DED2CA;" d="M232.848,424.402c20.731,0,24.153-14.754,39.182-19.613c-2.961-0.958-6.365-1.539-10.449-1.539
		c-20.731,0-24.153,14.753-39.182,19.613C225.36,423.82,228.764,424.402,232.848,424.402z"/>
	<path style="fill:#DED2CA;" d="M133.585,424.402c20.731,0,24.153-14.754,39.183-19.614c-2.961-0.957-6.364-1.538-10.449-1.538
		c-20.732,0-24.153,14.754-39.183,19.613C126.096,423.821,129.499,424.402,133.585,424.402z"/>
</g>
<path style="fill:#FFA163;" d="M160.628,224.862c0,4.706-0.021,9.372-0.073,13.994c-8.411,4.968-10.47,19.234-22.277,19.234
	c-14.305,0-14.305-20.919-28.609-20.919c-14.315,0-14.315,20.919-28.62,20.919c-11.807,0-13.866-14.267-22.288-19.234
	c-0.052-4.624-0.073-9.288-0.073-13.994c0-20.898,1.181-41.053,3.229-59.995c6.019,6.108,8.955,16.704,19.132,16.704
	c14.305,0,14.305-20.919,28.62-20.919c14.305,0,14.305,20.919,28.609,20.919c10.177,0,13.113-10.595,19.122-16.704
	C159.447,183.809,160.628,203.964,160.628,224.862z"/>
<path style="fill:#E88441;" d="M79.586,246.667c0-22.464,0.771-44.27,2.13-65.126c-0.222,0.01-0.437,0.03-0.667,0.03
	c-10.177,0-13.113-10.595-19.132-16.704c-2.048,18.942-3.229,39.097-3.229,59.995c0,4.706,0.021,9.372,0.073,13.995
	c8.068,4.758,10.302,18.041,20.853,19.152C79.597,254.246,79.586,250.47,79.586,246.667z"/>
<circle style="fill:#FFDC7B;" cx="346.646" cy="189.85" r="53.77"/>
<path style="fill:#F0AE59;" d="M313.774,189.855c0-26.12,18.627-47.881,43.32-52.746c-3.381-0.666-6.872-1.023-10.449-1.023
	c-29.696,0-53.769,24.073-53.769,53.769s24.073,53.768,53.769,53.768c3.577,0,7.068-0.357,10.449-1.023
	C332.402,237.736,313.774,215.974,313.774,189.855z"/>
<circle style="fill:#FFF1CC;" cx="357.095" cy="177.144" r="21.798"/>
<path d="M504.164,416.565c-9.52,0-13.804-3.651-19.732-8.703c-6.508-5.547-14.606-12.449-29.9-12.449
	c-15.294,0-23.392,6.902-29.899,12.448c-5.928,5.053-10.211,8.704-19.733,8.704c-9.52,0-13.804-3.651-19.732-8.703
	c-6.508-5.547-14.605-12.449-29.899-12.449c-15.294,0-23.393,6.902-29.9,12.449c-5.928,5.052-10.211,8.703-19.733,8.703
	c-9.52,0-13.803-3.651-19.731-8.703c-6.507-5.546-14.605-12.449-29.899-12.449s-23.392,6.902-29.899,12.449
	c-5.928,5.052-10.21,8.703-19.732,8.703c-9.522,0-13.805-3.651-19.733-8.703c-6.508-5.547-14.606-12.449-29.9-12.449
	c-2.856,0-5.461,0.241-7.85,0.669c5.162-13.284,9.338-30.41,12.444-51.135c0.642-4.281-2.308-8.27-6.589-8.911
	c-4.282-0.647-8.27,2.307-8.911,6.589c-5.85,39.051-15.49,63.772-27.625,71.538c-0.235,0.12-0.476,0.232-0.718,0.344v-31.416
	c0-4.329-3.508-7.837-7.837-7.837s-7.837,3.508-7.837,7.837v31.422c-13.13-7.762-31.635-39.394-34.82-154.156
	c3.413,3.148,7.852,5.57,14.048,5.57c11.286,0,16.769-8.015,20.773-13.868c3.737-5.463,5.219-7.05,7.847-7.05
	c2.622,0,4.103,1.587,7.837,7.046c4.003,5.856,9.486,13.872,20.774,13.872c6.183,0,10.616-2.413,14.027-5.553
	c-0.371,13.153-0.953,25.615-1.748,37.205c-0.296,4.318,2.964,8.058,7.283,8.354c0.183,0.013,0.364,0.019,0.544,0.019
	c4.083,0,7.526-3.165,7.811-7.301c1.239-18.069,1.979-38.161,2.198-59.708c0.049-4.42,0.073-9.027,0.073-14.082
	c0-2.535-0.017-5.072-0.051-7.611c-0.036-2.634-0.092-5.271-0.164-7.909c-0.417-15.157-1.439-30.341-3.058-45.314
	c-4.077-37.863-11.925-74.129-22.1-102.117c-10.776-29.64-22.025-44.668-33.437-44.668c-7.356,0-14.355,5.873-21.398,17.958
	c-5.732,9.836-11.461,23.742-16.566,40.215c-1.281,4.134,1.031,8.524,5.166,9.805c4.134,1.278,8.523-1.031,9.805-5.166
	c9.77-31.531,19.311-44.825,22.981-46.963c2.718,1.654,10.627,10.828,19.92,37.569c8.868,25.516,15.811,57.967,19.66,91.703
	c-1.117,1.432-2.134,2.891-3.117,4.328c-3.733,5.456-5.214,7.043-7.833,7.043c-2.622,0-4.103-1.587-7.837-7.046
	c-4.003-5.856-9.486-13.872-20.774-13.872c-11.292,0-16.778,8.019-20.783,13.873c-3.733,5.459-5.215,7.045-7.837,7.045
	c-2.617,0-4.099-1.585-7.833-7.037c-0.982-1.435-1.999-2.892-3.115-4.322c1.506-13.219,3.463-26.267,5.869-38.816
	c0.814-4.251-1.971-8.357-6.221-9.172c-4.262-0.812-8.358,1.972-9.172,6.221c-2.686,14.019-4.858,28.623-6.448,43.4
	c-0.001,0.005-0.002,0.01-0.002,0.01c-1.902,17.593-2.983,35.463-3.224,53.234c-0.034,2.539-0.051,5.075-0.051,7.609
	c0,5.055,0.024,9.661,0.073,14.082v0.001c0.76,74.637,7.397,127.281,20.113,158.635c-3.813-1.321-8.245-2.167-13.562-2.167
	c-15.296,0-23.394,6.902-29.902,12.448c-5.929,5.053-10.212,8.704-19.736,8.704c-4.329,0-7.837,3.508-7.837,7.837v5.811
	c0.001,35.591,28.653,64.548,63.87,64.548h333.714c4.329,0,7.837-3.508,7.837-7.837c0-4.329-3.508-7.837-7.837-7.837H63.87
	c-26.128,0-47.467-21.193-48.177-47.518c10.41-1.863,16.756-7.27,22.048-11.78c5.929-5.052,10.212-8.703,19.735-8.703
	s13.807,3.651,19.736,8.704c6.25,5.326,13.985,11.884,28.133,12.398c1.398,0.185,2.82,0.288,4.273,0.29
	c0.014,0,0.027,0.002,0.042,0.002c0.031,0,0.062-0.004,0.093-0.004c6.471-0.019,12.423-1.914,17.838-5.623
	c3.691-2.19,6.701-4.744,9.424-7.065c5.928-5.052,10.211-8.703,19.732-8.703c9.521,0,13.805,3.651,19.733,8.703
	c6.508,5.547,14.606,12.449,29.9,12.449s23.392-6.902,29.899-12.449c5.928-5.052,10.21-8.703,19.732-8.703
	c9.522,0,13.804,3.651,19.732,8.703c6.507,5.547,14.605,12.449,29.898,12.449c15.295,0,23.393-6.902,29.9-12.449
	c5.928-5.052,10.211-8.703,19.733-8.703c9.52,0,13.804,3.651,19.732,8.703c6.508,5.547,14.606,12.449,29.899,12.449
	c15.295,0,23.393-6.902,29.9-12.449c5.928-5.052,10.211-8.703,19.732-8.703c9.521,0,13.805,3.651,19.733,8.704
	c5.29,4.509,11.635,9.916,22.044,11.779c-0.712,26.324-22.051,47.518-48.177,47.518c-4.329,0-7.837,3.508-7.837,7.837
	c0,4.329,3.508,7.837,7.837,7.837c35.217,0,63.869-28.956,63.869-64.549v-5.811C512.001,420.073,508.493,416.565,504.164,416.565z
	 M81.049,189.409c11.286,0,16.769-8.016,20.773-13.868c3.737-5.463,5.219-7.05,7.847-7.05c2.622,0,4.103,1.587,7.837,7.046
	c4.003,5.856,9.486,13.872,20.774,13.872c5.598,0,9.768-1.974,13.037-4.677c0.029,0.396,0.06,0.792,0.088,1.188
	c0.185,2.609,0.352,5.221,0.499,7.836c0.023,0.403,0.051,0.807,0.073,1.211c0.162,2.98,0.294,5.962,0.408,8.944
	c0.032,0.848,0.057,1.697,0.086,2.545c0.075,2.256,0.138,4.512,0.185,6.767c0.019,0.884,0.039,1.767,0.053,2.651
	c0.049,3,0.083,5.997,0.083,8.99c0,1.105-0.001,2.181-0.004,3.245c-0.001,0.325-0.002,0.647-0.003,0.969
	c-0.002,0.81-0.005,1.608-0.009,2.397c-0.001,0.264-0.002,0.533-0.003,0.795c-0.005,0.912-0.012,1.808-0.018,2.698
	c-2.737,2.523-4.779,5.511-6.648,8.243c-3.73,5.459-5.211,7.045-7.828,7.045c-2.622,0-4.103-1.587-7.837-7.046
	c-4.003-5.856-9.486-13.872-20.774-13.872c-11.292,0-16.778,8.019-20.783,13.873c-3.733,5.459-5.215,7.045-7.837,7.045
	c-2.616,0-4.097-1.586-7.828-7.041c-1.87-2.735-3.917-5.726-6.658-8.251c-0.007-0.888-0.013-1.784-0.018-2.694
	c-0.001-0.265-0.002-0.536-0.003-0.804c-0.004-0.786-0.007-1.582-0.009-2.389c-0.001-0.323-0.002-0.646-0.003-0.972
	c-0.002-1.064-0.004-2.139-0.004-3.243c0-2.996,0.033-5.997,0.083-9c0.015-0.874,0.034-1.747,0.053-2.622
	c0.048-2.272,0.111-4.544,0.187-6.817c0.028-0.832,0.052-1.665,0.085-2.496c0.114-2.992,0.247-5.984,0.41-8.974
	c0.021-0.392,0.049-0.783,0.071-1.173c0.147-2.614,0.316-5.228,0.499-7.837c0.029-0.406,0.061-0.812,0.09-1.218
	C71.275,187.431,75.447,189.409,81.049,189.409z"/>
<path d="M346.646,251.46c33.97,0,61.606-27.637,61.606-61.606s-27.637-61.606-61.606-61.606s-61.606,27.637-61.606,61.606
	S312.676,251.46,346.646,251.46z M346.646,143.921c25.327,0,45.933,20.605,45.933,45.933s-20.605,45.933-45.933,45.933
	s-45.933-20.605-45.933-45.933S321.319,143.921,346.646,143.921z"/>
<path d="M346.646,118.54c4.329,0,7.837-3.508,7.837-7.837V99.209c0-4.329-3.508-7.837-7.837-7.837s-7.837,3.508-7.837,7.837v11.494
	C338.809,115.032,342.317,118.54,346.646,118.54z"/>
<path d="M338.809,269.005v11.494c0,4.329,3.508,7.837,7.837,7.837s7.837-3.508,7.837-7.837v-11.494c0-4.329-3.508-7.837-7.837-7.837
	S338.809,264.677,338.809,269.005z"/>
<path d="M402.614,141.723c2.005,0,4.011-0.765,5.541-2.295l8.127-8.126c3.062-3.061,3.062-8.023,0.001-11.082
	c-3.062-3.061-8.024-3.062-11.082-0.001l-8.127,8.126c-3.062,3.061-3.062,8.023-0.001,11.082
	C398.603,140.957,400.609,141.723,402.614,141.723z"/>
<path d="M285.136,240.281l-8.127,8.127c-3.06,3.062-3.06,8.023,0,11.083c1.531,1.53,3.537,2.295,5.542,2.295
	s4.011-0.765,5.542-2.295l8.127-8.127c3.06-3.062,3.06-8.023,0-11.083C293.159,237.221,288.197,237.221,285.136,240.281z"/>
<path d="M425.797,197.691h11.494c4.329,0,7.837-3.508,7.837-7.837c0-4.329-3.508-7.837-7.837-7.837h-11.494
	c-4.329,0-7.837,3.508-7.837,7.837C417.96,194.183,421.468,197.691,425.797,197.691z"/>
<path d="M256.001,197.691h11.494c4.329,0,7.837-3.508,7.837-7.837c0-4.329-3.508-7.837-7.837-7.837h-11.494
	c-4.329,0-7.837,3.508-7.837,7.837C248.164,194.183,251.672,197.691,256.001,197.691z"/>
<path d="M408.156,240.281c-3.062-3.059-8.023-3.059-11.083,0c-3.06,3.062-3.06,8.023,0,11.083l8.127,8.127
	c1.531,1.53,3.537,2.295,5.542,2.295c2.005,0,4.011-0.765,5.542-2.295c3.06-3.062,3.06-8.023,0-11.083L408.156,240.281z"/>
<path d="M285.137,139.428c1.53,1.53,3.536,2.295,5.541,2.295c2.005,0,4.011-0.765,5.542-2.296c3.06-3.061,3.06-8.023-0.001-11.082
	l-8.127-8.126c-3.059-3.059-8.022-3.061-11.082,0.001c-3.06,3.061-3.06,8.023,0.001,11.082L285.137,139.428z"/>
<circle cx="63.74" cy="438.859" r="7.837"/>
<circle cx="149.244" cy="438.859" r="7.837"/>
<circle cx="194.53" cy="460.457" r="7.837"/>
<circle cx="248.164" cy="437.25" r="7.837"/>
<circle cx="312.248" cy="456.058" r="7.837"/>
<circle cx="351.797" cy="437.25" r="7.837"/>
<circle cx="429.454" cy="456.058" r="7.837"/>
<g>
</g>
<g>
</g>
<g>
</g>
<g>
</g>
<g>
</g>
<g>
</g>
<g>
</g>
<g>
</g>
<g>
</g>
<g>
</g>
<g>
</g>
<g>
</g>
<g>
</g>
<g>
</g>
<g>
</g>
</svg>
